{
	"patcher" : 	{
		"fileversion" : 1,
		"appversion" : 		{
			"major" : 8,
			"minor" : 1,
			"revision" : 6,
			"architecture" : "x64",
			"modernui" : 1
		}
,
		"classnamespace" : "box",
		"rect" : [ 896.0, 79.0, 665.0, 702.0 ],
		"bglocked" : 0,
		"openinpresentation" : 0,
		"default_fontsize" : 12.0,
		"default_fontface" : 0,
		"default_fontname" : "Arial",
		"gridonopen" : 1,
		"gridsize" : [ 15.0, 15.0 ],
		"gridsnaponopen" : 1,
		"objectsnaponopen" : 1,
		"statusbarvisible" : 2,
		"toolbarvisible" : 1,
		"lefttoolbarpinned" : 0,
		"toptoolbarpinned" : 0,
		"righttoolbarpinned" : 0,
		"bottomtoolbarpinned" : 0,
		"toolbars_unpinned_last_save" : 0,
		"tallnewobj" : 0,
		"boxanimatetime" : 200,
		"enablehscroll" : 1,
		"enablevscroll" : 1,
		"devicewidth" : 0.0,
		"description" : "",
		"digest" : "",
		"tags" : "",
		"style" : "",
		"subpatcher_template" : "",
		"assistshowspatchername" : 0,
		"boxes" : [ 			{
				"box" : 				{
					"fontface" : 0,
					"fontsize" : 12.0,
					"id" : "obj-2",
					"maxclass" : "o.display",
					"numinlets" : 1,
					"numoutlets" : 1,
					"outlettype" : [ "" ],
					"patching_rect" : [ 183.0, 441.0, 363.0, 34.0 ]
				}

			}
, 			{
				"box" : 				{
					"id" : "obj-8",
					"maxclass" : "newobj",
					"numinlets" : 1,
					"numoutlets" : 1,
					"outlettype" : [ "" ],
					"patching_rect" : [ 183.0, 403.0, 133.0, 22.0 ],
					"text" : "udpreceive 7777 cnmat"
				}

			}
, 			{
				"box" : 				{
					"fontface" : 0,
					"fontsize" : 12.0,
					"id" : "obj-11",
					"linecount" : 7,
					"maxclass" : "o.compose",
					"numinlets" : 2,
					"numoutlets" : 1,
					"outlettype" : [ "" ],
					"patching_rect" : [ 469.0, 132.0, 150.0, 106.0 ],
					"saved_bundle_data" : [ 35, 98, 117, 110, 100, 108, 101, 0, 0, 0, 0, 0, 0, 0, 0, 0, 0, 0, 0, 16, 47, 107, 101, 121, 0, 0, 0, 0, 44, 115, 0, 0, 115, 118, 103, 0, 0, 0, 0, 104, 47, 118, 97, 108, 0, 0, 0, 0, 44, 46, 0, 0, 0, 0, 0, 88, 35, 98, 117, 110, 100, 108, 101, 0, 0, 0, 0, 0, 0, 0, 0, 0, 0, 0, 0, 20, 47, 110, 101, 119, 0, 0, 0, 0, 44, 115, 0, 0, 99, 105, 114, 99, 108, 101, 0, 0, 0, 0, 0, 12, 47, 99, 120, 0, 44, 105, 0, 0, 0, 0, 0, 100, 0, 0, 0, 12, 47, 99, 121, 0, 44, 105, 0, 0, 0, 0, 0, 100, 0, 0, 0, 12, 47, 114, 0, 0, 44, 105, 0, 0, 0, 0, 0, 10 ],
					"saved_bundle_length" : 144,
					"text" : "/key : \"svg\",\n/val : {\n\t/new : \"circle\",\n\t/cx : 100,\n\t/cy : 100,\n\t/r : 10\n}"
				}

			}
, 			{
				"box" : 				{
					"id" : "obj-10",
					"linecount" : 11,
					"maxclass" : "message",
					"numinlets" : 2,
					"numoutlets" : 1,
					"outlettype" : [ "" ],
					"patching_rect" : [ 46.0, 217.0, 109.0, 156.0 ],
					"text" : "\"{\n\t\\\"key\\\" : \\\"svg\\\",\n\t\\\"val\\\" : \t{\n\t\t\\\"new\\\" : \\\"circle\\\",\n\t\t\\\"cx\\\" : 100,\n\t\t\\\"cy\\\" : 100,\n\t\t\\\"r\\\" : 10\n\t}\n\n}\n\""
				}

			}
, 			{
				"box" : 				{
					"fontface" : 0,
					"fontsize" : 12.0,
					"id" : "obj-7",
					"linecount" : 7,
					"maxclass" : "o.compose",
					"numinlets" : 2,
					"numoutlets" : 1,
					"outlettype" : [ "" ],
					"patching_rect" : [ 143.0, 76.0, 150.0, 106.0 ],
					"saved_bundle_data" : [ 35, 98, 117, 110, 100, 108, 101, 0, 0, 0, 0, 0, 0, 0, 0, 0, 0, 0, 0, 16, 47, 107, 101, 121, 0, 0, 0, 0, 44, 115, 0, 0, 115, 118, 103, 0, 0, 0, 0, 104, 47, 118, 97, 108, 0, 0, 0, 0, 44, 46, 0, 0, 0, 0, 0, 88, 35, 98, 117, 110, 100, 108, 101, 0, 0, 0, 0, 0, 0, 0, 0, 0, 0, 0, 0, 20, 47, 110, 101, 119, 0, 0, 0, 0, 44, 115, 0, 0, 99, 105, 114, 99, 108, 101, 0, 0, 0, 0, 0, 12, 47, 99, 120, 0, 44, 105, 0, 0, 0, 0, 0, 100, 0, 0, 0, 12, 47, 99, 121, 0, 44, 105, 0, 0, 0, 0, 0, 100, 0, 0, 0, 12, 47, 114, 0, 0, 44, 105, 0, 0, 0, 0, 0, 10 ],
					"saved_bundle_length" : 144,
					"text" : "/key : \"svg\",\n/val : {\n\t/new : \"circle\",\n\t/cx : 100,\n\t/cy : 100,\n\t/r : 10\n}"
				}

			}
, 			{
				"box" : 				{
					"fontname" : "Arial",
					"fontsize" : 13.0,
					"id" : "obj-6",
					"linecount" : 2,
					"maxclass" : "newobj",
					"numinlets" : 1,
					"numoutlets" : 1,
					"outlettype" : [ "" ],
					"patching_rect" : [ 341.0, 217.0, 95.0, 38.0 ],
					"text" : "dict.serialize @mode json"
				}

			}
, 			{
				"box" : 				{
					"id" : "obj-5",
					"maxclass" : "newobj",
					"numinlets" : 1,
					"numoutlets" : 1,
					"outlettype" : [ "" ],
					"patching_rect" : [ 341.0, 174.0, 37.0, 22.0 ],
					"text" : "o.dict"
				}

			}
, 			{
				"box" : 				{
					"fontface" : 0,
					"fontsize" : 12.0,
					"id" : "obj-4",
					"linecount" : 3,
					"maxclass" : "o.compose",
					"numinlets" : 2,
					"numoutlets" : 1,
					"outlettype" : [ "" ],
					"patching_rect" : [ 341.0, 109.0, 150.0, 51.0 ],
					"saved_bundle_data" : [ 35, 98, 117, 110, 100, 108, 101, 0, 0, 0, 0, 0, 0, 0, 0, 0, 0, 0, 0, 52, 47, 102, 111, 111, 0, 0, 0, 0, 44, 46, 0, 0, 0, 0, 0, 36, 35, 98, 117, 110, 100, 108, 101, 0, 0, 0, 0, 0, 0, 0, 0, 0, 0, 0, 0, 16, 47, 98, 97, 114, 0, 0, 0, 0, 44, 105, 0, 0, 0, 0, 0, 2 ],
					"saved_bundle_length" : 72,
					"text" : "/foo : {\n\t/bar : 2\n}"
				}

			}
, 			{
				"box" : 				{
					"id" : "obj-3",
					"maxclass" : "button",
					"numinlets" : 1,
					"numoutlets" : 1,
					"outlettype" : [ "bang" ],
					"parameter_enable" : 0,
					"patching_rect" : [ 357.0, 62.0, 24.0, 24.0 ]
				}

			}
, 			{
				"box" : 				{
					"id" : "obj-1",
					"maxclass" : "newobj",
					"numinlets" : 1,
					"numoutlets" : 0,
					"patching_rect" : [ 341.0, 298.0, 145.0, 22.0 ],
					"text" : "udpsend localhost 8888"
				}

			}
 ],
		"lines" : [ 			{
				"patchline" : 				{
					"destination" : [ "obj-1", 0 ],
					"source" : [ "obj-10", 0 ]
				}

			}
, 			{
				"patchline" : 				{
					"destination" : [ "obj-1", 0 ],
					"source" : [ "obj-11", 0 ]
				}

			}
, 			{
				"patchline" : 				{
					"destination" : [ "obj-5", 0 ],
					"source" : [ "obj-4", 0 ]
				}

			}
, 			{
				"patchline" : 				{
					"destination" : [ "obj-6", 0 ],
					"source" : [ "obj-5", 0 ]
				}

			}
, 			{
				"patchline" : 				{
					"destination" : [ "obj-1", 0 ],
					"order" : 0,
					"source" : [ "obj-6", 0 ]
				}

			}
, 			{
				"patchline" : 				{
					"destination" : [ "obj-10", 1 ],
					"order" : 1,
					"source" : [ "obj-6", 0 ]
				}

			}
, 			{
				"patchline" : 				{
					"destination" : [ "obj-5", 0 ],
					"source" : [ "obj-7", 0 ]
				}

			}
, 			{
				"patchline" : 				{
					"destination" : [ "obj-2", 0 ],
					"source" : [ "obj-8", 0 ]
				}

			}
 ],
		"dependency_cache" : [ 			{
				"name" : "o.compose.mxo",
				"type" : "iLaX"
			}
, 			{
				"name" : "o.dict.mxo",
				"type" : "iLaX"
			}
, 			{
				"name" : "o.display.mxo",
				"type" : "iLaX"
			}
 ],
		"autosave" : 0
	}

}
